<svg xmlns="http://www.w3.org/2000/svg" width="256" height="256"><path fill-opacity=".016" d="M0 128.004v128.004l128.25-.254 128.25-.254.254-127.75L257.008 0H0v128.004m.485.496c0 70.4.119 99.053.265 63.672.146-35.38.146-92.98 0-128C.604 29.153.485 58.1.485 128.5" fill="#1976D2" fill-rule="evenodd"/><path fill-opacity=".211" d="M105.5 2.961c-4.4.453-9.673 1.547-11.718 2.431C91.737 6.277 89.292 7 88.348 7s-3.546.862-5.782 1.916a1200.858 1200.858 0 0 1-11.066 5.1C55.27 21.4 34.093 38.839 25.35 52.02c-4.59 6.918-8.334 13.294-9.385 15.98-.538 1.375-1.6 3.625-2.359 5-2.19 3.967-6.373 15.17-7.094 19-.363 1.925-1.614 6.2-2.782 9.5-1.886 5.333-2.127 8.225-2.16 26-.033 17.895.191 20.684 2.127 26.5 1.19 3.575 2.458 8.075 2.819 10 2.806 14.988 17.5 40.258 31.398 54C52.876 232.792 68.869 242.173 92 249.725c8.406 2.744 8.788 2.775 34.5 2.775 25.746 0 26.083-.027 34.5-2.786 4.675-1.533 10.408-3.671 12.739-4.75 2.332-1.08 4.582-1.965 5-1.966 3.656-.01 25.265-14.27 32.974-21.758 7.651-7.433 24.287-28.537 24.287-30.81 0-.258 1.025-2.148 2.277-4.2 5.997-9.822 11.301-27.382 13.366-44.254 1.61-13.147 1.611-14.794.024-27.758-2.726-22.266-9.289-40.419-20.505-56.718C215.531 34.787 197.519 20.026 174 10.657 156.411 3.65 152.836 2.95 132.504 2.53c-10.452-.216-22.604-.022-27.004.431M34.778 142.768c-1.388 1.672-.431 9.365 2.091 16.815 9.143 27.007 27.39 46.304 53.667 56.753 13.495 5.367 21.165 6.862 35.496 6.918 20.911.083 41.383-6.313 57.077-17.834 5.486-4.027 19.891-19.275 19.891-21.055 0-1.304-6.571-7.365-7.985-7.365-.503 0-2.961-1.381-5.461-3.068-5.226-3.527-7.215-3.312-11.005 1.192C174.618 179.796 158.644 192 156.46 192c-.321 0-2.935 1.112-5.809 2.472-11.469 5.426-36.836 5.415-48.339-.02-2.854-1.349-5.434-2.452-5.735-2.452-1.398 0-11.574-6.826-15.921-10.68C73.665 175.122 62 159.209 62 155.869c0-1.673-4.229-11.274-5.649-12.824-1.776-1.939-20-2.173-21.573-.277" fill="#1976D2" fill-rule="evenodd"/><path fill-opacity=".323" d="M109.908 4.936c-4.175.439-10.364 1.758-13.754 2.931C92.765 9.04 89.268 10 88.382 10c-.885 0-3.246.828-5.246 1.841-2 1.012-6.786 3.349-10.636 5.192-7.92 3.792-12.574 6.65-20.5 12.588-6.564 4.917-18.357 16.797-21.937 22.098a187.463 187.463 0 0 1-5.23 7.288c-2.705 3.543-11.828 20.956-11.839 22.598-.004.492-.711 2.245-1.573 3.895s-2.98 9.075-4.706 16.5c-2.684 11.545-3.134 15.383-3.104 26.5.024 9.026.554 14.904 1.734 19.229.934 3.425 2.144 8.579 2.689 11.453 1.96 10.333 10.069 27.734 18.788 40.318 18.402 26.559 51.129 46.728 82.178 50.646 4.732.597 15.372.841 24 .549 12.661-.427 17.148-1 24.5-3.127 9.313-2.695 22.876-8.094 25.5-10.151.825-.647 2.922-1.896 4.661-2.776 5.774-2.923 18.753-12.698 25.177-18.961 9.401-9.167 15.763-17.521 20.479-26.889 1.304-2.59 2.821-5.29 3.372-6 1.322-1.705 3.9-9.246 6.879-20.126 1.33-4.859 2.642-9.195 2.915-9.637.272-.441.969-6.253 1.547-12.915 2.747-31.634-6.125-64.445-23.554-87.113-4.66-6.06-17-18.439-22.476-22.547C196.321 26.192 185.176 19 184.253 19c-.469 0-1.365-.512-1.991-1.138-2.637-2.637-15.154-7.237-32.262-11.857-4.924-1.33-31.005-2.025-40.092-1.069M114 31.144c-21.283 2.199-46.122 15.407-60.241 32.033-9.49 11.175-15.697 22.942-20.744 39.323-2.877 9.34-4.489 41.265-2.473 48.99C35.75 171.451 43.908 184.894 61 201.682c10.488 10.301 26.307 18.968 41.969 22.994 13.673 3.515 33.413 3.509 47.123-.015 15.577-4.004 30.836-12.322 41.976-22.883 8.273-7.842 15.24-16.532 14.597-18.208-.812-2.117-21.234-15.57-23.636-15.57-1.201 0-5.012 2.992-9.283 7.288-12.054 12.125-23.633 18.171-38.12 19.904-26.473 3.166-49.046-7.249-64.659-29.834-4.728-6.84-8.967-16.187-8.967-19.774 0-.806.562-1.83 1.25-2.275.688-.445 30.05-1.116 65.25-1.491 70.27-.748 90.265-1.543 92.849-3.69 3.617-3.007.942-30.052-4.366-44.128-13.18-34.958-43.797-59.341-79.053-62.959-11.223-1.152-11.808-1.149-23.93.103m-2.661 26.383c-3.938.72-8.213 1.975-9.5 2.787-1.286.813-3.381 1.789-4.655 2.17-3.177.95-13.656 8.234-19.554 13.592-6.048 5.495-12.817 15.722-16.681 25.204-3.16 7.754-3.659 11.61-1.749 13.52.909.909 16.995 1.2 66.277 1.2 57.282 0 65.344-.186 67.3-1.557 3.565-2.497 2.895-7.366-2.513-18.263-3.619-7.29-6.392-11.22-11.75-16.652-7.461-7.563-17.504-14.705-26.514-18.856-9.618-4.432-26.496-5.737-40.661-3.145" fill="#1976D2" fill-rule="evenodd"/><path fill-opacity=".605" d="M114.146 60.091c-3.495.536-8.09 1.86-10.21 2.942C101.815 64.115 99.532 65 98.863 65c-2.008 0-11.971 7.126-18.173 12.999-7.345 6.954-15.025 18.214-17.261 25.308-2.998 9.513-8.876 8.693 62.34 8.693 65.766 0 65.231.035 65.231-4.293 0-2.602-7.526-17.312-11.36-22.203-7.267-9.272-18.083-17.819-26.543-20.976-2.254-.84-5.854-2.186-8.002-2.99-5.014-1.878-22.741-2.707-30.949-1.447m90.752 83.837c-5.52.329-10.256 1.117-11.14 1.853-.845.704-2.545 3.976-3.777 7.271-1.233 3.295-2.632 6.232-3.111 6.528-3.225 1.994 1.44 7.781 11.616 14.411 8.115 5.287 10.232 5.454 12.804 1.009 3.649-6.306 8.679-19.286 9.306-24.013.666-5.022-1.109-8.16-4.417-7.809-.924.098-6 .436-11.281.75" fill="#1976D2" fill-rule="evenodd"/></svg>